<?xml version="1.0" encoding="UTF-8" standalone="no"?>
<svg
   xmlns:dc="http://purl.org/dc/elements/1.1/"
   xmlns:cc="http://creativecommons.org/ns#"
   xmlns:rdf="http://www.w3.org/1999/02/22-rdf-syntax-ns#"
   xmlns:svg="http://www.w3.org/2000/svg"
   xmlns="http://www.w3.org/2000/svg"
   xmlns:sodipodi="http://sodipodi.sourceforge.net/DTD/sodipodi-0.dtd"
   xmlns:inkscape="http://www.inkscape.org/namespaces/inkscape"
   version="1.1"
   id="Layer_1"
   x="0px"
   y="0px"
   width="512px"
   height="512px"
   viewBox="0 0 512 512"
   enable-background="new 0 0 512 512"
   xml:space="preserve"
   sodipodi:docname="icon.svg"
   inkscape:version="1.0.1 (3bc2e813f5, 2020-09-07)"
   inkscape:export-filename="C:\Users\nomad\Desktop\new work\Projects\reload-and-select-all-tabs\icons\16.png"
   inkscape:export-xdpi="9.5299997"
   inkscape:export-ydpi="9.5299997"><metadata
   id="metadata9"><rdf:RDF><cc:Work
       rdf:about=""><dc:format>image/svg+xml</dc:format><dc:type
         rdf:resource="http://purl.org/dc/dcmitype/StillImage" /><dc:title /></cc:Work></rdf:RDF></metadata><defs
   id="defs7" /><sodipodi:namedview
   pagecolor="#ffffff"
   bordercolor="#666666"
   borderopacity="1"
   objecttolerance="10"
   gridtolerance="10"
   guidetolerance="10"
   inkscape:pageopacity="0"
   inkscape:pageshadow="2"
   inkscape:window-width="1920"
   inkscape:window-height="1013"
   id="namedview5"
   showgrid="false"
   inkscape:zoom="0.50754245"
   inkscape:cx="196.63629"
   inkscape:cy="700.25482"
   inkscape:window-x="-9"
   inkscape:window-y="-9"
   inkscape:window-maximized="1"
   inkscape:current-layer="Layer_1"
   inkscape:document-rotation="0" />
<circle
   style="fill:#be416a;fill-opacity:1;stroke-linecap:round"
   id="path834"
   cx="256"
   cy="256"
   r="241.85168" />
<path
   id="path2-5"
   style="fill:#ffffff;stroke-width:18.0833"
   d="m 374.69612,113.88227 c -0.60553,-0.003 -1.2162,0.0281 -1.82723,0.0934 -3.66618,0.39137 -7.36261,2.00112 -10.22185,4.86018 l -28.91831,28.92363 c -4.32326,-3.22619 -8.77001,-6.30772 -13.47084,-9.04814 -29.41983,-17.15096 -63.98624,-23.27695 -97.50759,-17.2827 -33.52312,5.99423 -63.82449,23.7214 -85.47718,50.00486 -21.65273,26.28292 -33.25296,59.41549 -32.7195,93.46633 0.53367,34.04893 13.16422,66.804 35.62973,92.39668 22.46554,25.59272 53.30891,42.36204 87.003,47.30267 33.69361,4.94263 68.05084,-2.26761 96.91807,-20.33164 20.68113,-12.94076 37.58244,-30.85191 49.28729,-51.90678 l 0.003,-0.005 c 0.48364,-0.8687 0.95127,-1.73574 1.40577,-2.59547 1.06238,-2.00828 2.07999,-4.04301 3.04894,-6.10323 v -0.003 c 6.26427,-13.33505 -1.79299,-28.64304 -15.29273,-32.92222 -11.3135,-3.58657 -22.84393,1.21072 -29.77457,9.58965 l -0.003,0.003 c -0.97013,1.17339 -1.85356,2.41996 -2.64615,3.7265 -0.31403,0.5178 -0.61604,1.04753 -0.90428,1.59249 -7.51908,14.20746 -18.6858,26.28567 -32.47674,34.9175 -18.49737,11.57335 -40.50035,16.18873 -62.08594,13.02271 -21.58797,-3.16612 -41.34136,-13.90317 -55.73462,-30.30007 -14.39325,-16.39684 -22.4813,-37.37741 -22.82308,-59.19169 -0.34161,-21.81642 7.08573,-43.03755 20.95849,-59.87725 13.87253,-16.83928 33.27961,-28.18832 54.75567,-32.02861 21.47834,-3.84041 43.61514,0.0803 62.46471,11.07011 0.8219,0.47939 1.55342,1.08112 2.35807,1.58448 l -29.70788,29.70789 c -5.08173,5.08173 -6.05772,12.61095 -3.66247,18.39503 2.39525,5.78409 8.40753,10.4219 15.59417,10.4219 H 383.6269 c 4.32783,-0.001 7.83593,-3.50927 7.8371,-7.83709 V 130.77278 c 0,-8.98376 -7.08728,-15.85657 -14.96998,-16.78387 -0.59132,-0.0695 -1.19235,-0.10448 -1.79788,-0.10667 z"
   sodipodi:nodetypes="ssccccccsccccccccccscccscscccsssccsss" /></svg>
