<?xml version="1.0" encoding="UTF-8" standalone="no"?>
<svg
   xmlns:dc="http://purl.org/dc/elements/1.1/"
   xmlns:cc="http://creativecommons.org/ns#"
   xmlns:rdf="http://www.w3.org/1999/02/22-rdf-syntax-ns#"
   xmlns:svg="http://www.w3.org/2000/svg"
   xmlns="http://www.w3.org/2000/svg"
   xmlns:sodipodi="http://sodipodi.sourceforge.net/DTD/sodipodi-0.dtd"
   xmlns:inkscape="http://www.inkscape.org/namespaces/inkscape"
   version="1.1"
   id="Layer_1"
   x="0px"
   y="0px"
   width="512px"
   height="512px"
   viewBox="0 0 512 512"
   enable-background="new 0 0 512 512"
   xml:space="preserve"
   sodipodi:docname="icon.svg"
   inkscape:version="1.0.1 (3bc2e813f5, 2020-09-07)"><metadata
   id="metadata9"><rdf:RDF><cc:Work
       rdf:about=""><dc:format>image/svg+xml</dc:format><dc:type
         rdf:resource="http://purl.org/dc/dcmitype/StillImage" /><dc:title /></cc:Work></rdf:RDF></metadata><defs
   id="defs7" /><sodipodi:namedview
   pagecolor="#ffffff"
   bordercolor="#666666"
   borderopacity="1"
   objecttolerance="10"
   gridtolerance="10"
   guidetolerance="10"
   inkscape:pageopacity="0"
   inkscape:pageshadow="2"
   inkscape:window-width="1920"
   inkscape:window-height="1013"
   id="namedview5"
   showgrid="false"
   inkscape:zoom="1.0150849"
   inkscape:cx="-38.133265"
   inkscape:cy="305.68768"
   inkscape:window-x="-9"
   inkscape:window-y="-9"
   inkscape:window-maximized="1"
   inkscape:current-layer="Layer_1"
   inkscape:document-rotation="0" />
<circle
   style="fill:#be416a;fill-opacity:1;stroke-linecap:round"
   id="path834"
   cx="256"
   cy="256"
   r="241.85168" />
<path
   id="path2-5"
   style="fill:#ffffff;stroke-width:13.2405"
   d="M 152.11328 131.5 C 151.03642 131.49991 149.95921 131.59375 148.89648 131.76758 C 139.57159 133.12598 132.58188 141.01404 132.12695 150.60547 C 132.06175 150.92967 132.02725 151.25917 132.02344 151.58984 L 132.02344 163.88086 C 132.0235 169.09469 134.16874 174.27615 137.85547 177.96289 C 141.5422 181.64962 146.72562 183.79682 151.93945 183.79688 C 160.28887 183.79673 168.16073 177.81361 170.85156 169.98438 C 178.23577 167.0317 183.71568 159.42853 183.7168 151.41602 C 183.71675 146.20219 181.57151 141.01876 177.88477 137.33203 C 174.19804 133.64529 169.01461 131.50006 163.80078 131.5 L 152.11523 131.5 L 152.11328 131.5 z M 222.23633 131.5 C 217.02251 131.50007 211.84102 133.64529 208.1543 137.33203 C 204.46757 141.01876 202.32038 146.20219 202.32031 151.41602 C 202.32038 156.62984 204.46757 161.81132 208.1543 165.49805 C 211.84102 169.18478 217.02251 171.33002 222.23633 171.33008 L 251.45508 171.33008 C 256.66891 171.33002 261.85038 169.18478 265.53711 165.49805 C 269.22385 161.81132 271.37103 156.62984 271.37109 151.41602 C 271.37104 146.20219 269.22385 141.01876 265.53711 137.33203 C 261.85038 133.64529 256.66891 131.50006 251.45508 131.5 L 222.23633 131.5 z M 309.89062 131.5 C 304.67681 131.50007 299.49337 133.64529 295.80664 137.33203 C 292.11991 141.01876 289.97467 146.20219 289.97461 151.41602 C 289.97467 156.62984 292.11991 161.81132 295.80664 165.49805 C 298.90603 168.59744 303.07263 170.51805 307.41602 171.08008 C 310.27478 178.65584 317.90612 184.43519 326.08008 184.43555 C 331.29424 184.43549 336.47534 182.28874 340.16211 178.60156 C 343.8489 174.91441 345.99657 169.73174 345.99609 164.51758 L 345.99609 151.58984 C 345.99209 151.2423 345.95414 150.89485 345.88281 150.55469 C 345.66204 145.36443 343.76435 140.57833 340.33984 137.1543 C 336.919 133.73393 332.14062 131.83942 326.95703 131.61523 C 326.61156 131.54183 326.25942 131.50353 325.90625 131.5 L 309.89062 131.5 z M 391.69922 190.52734 C 391.25585 190.52568 390.80872 190.54795 390.36133 190.5957 C 387.67697 190.88226 384.97047 192.06091 382.87695 194.1543 L 361.70312 215.33203 C 358.53765 212.96983 355.28176 210.71355 351.83984 208.70703 C 330.2988 196.14919 304.98946 191.66377 280.44531 196.05273 C 255.89986 200.44167 233.71336 213.42141 217.85938 232.66602 C 202.00537 251.91023 193.51174 276.16972 193.90234 301.10156 C 194.29309 326.032 203.54111 350.01509 219.99023 368.75391 C 236.43938 387.49276 259.02273 399.77117 283.69336 403.38867 C 308.36364 407.00764 333.51982 401.72834 354.65625 388.50195 C 369.79886 379.0268 382.17391 365.91235 390.74414 350.49609 L 390.74609 350.49219 C 391.10021 349.85613 391.44261 349.22129 391.77539 348.5918 C 392.55326 347.12135 393.29835 345.63153 394.00781 344.12305 A 5.7398317 5.7398317 0 0 0 394.00781 344.12109 C 398.59447 334.35724 392.69499 323.14881 382.81055 320.01562 C 374.52687 317.38955 366.08435 320.9021 361.00977 327.03711 A 5.7398317 5.7398317 0 0 0 361.00781 327.03906 C 360.29748 327.89821 359.65064 328.81094 359.07031 329.76758 C 358.84038 330.14671 358.61925 330.53458 358.4082 330.93359 C 352.90277 341.33622 344.72656 350.17982 334.62891 356.5 C 321.08523 364.97394 304.97477 368.3533 289.16992 366.03516 C 273.36332 363.71694 258.9 355.85533 248.36133 343.84961 C 237.82267 331.84393 231.90064 316.48207 231.65039 300.50977 C 231.40027 284.53591 236.83853 268.99791 246.99609 256.66797 C 257.15348 244.33834 271.36324 236.02864 287.08789 233.2168 C 302.81422 230.40487 319.02266 233.27563 332.82422 241.32227 C 333.42601 241.67328 333.96162 242.11386 334.55078 242.48242 L 312.79883 264.23438 C 309.07802 267.95519 308.3634 273.46805 310.11719 277.70312 C 311.87098 281.9382 316.27314 285.33398 321.53516 285.33398 L 398.23828 285.33398 A 5.7398317 5.7398317 0 0 0 403.97656 279.5957 L 403.97656 202.89453 C 403.97656 196.31667 398.78729 191.28444 393.01562 190.60547 C 392.58266 190.55453 392.14259 190.529 391.69922 190.52734 z M 151.93945 202.40039 C 146.72562 202.40045 141.5422 204.54764 137.85547 208.23438 C 134.16874 211.92111 132.0235 217.10258 132.02344 222.31641 L 132.02344 251.53516 C 132.0235 256.74899 134.16874 261.93241 137.85547 265.61914 C 141.5422 269.30587 146.72562 271.4511 151.93945 271.45117 C 157.15326 271.4511 162.33475 269.30587 166.02148 265.61914 C 169.70821 261.93241 171.85346 256.74898 171.85352 251.53516 L 171.85352 222.31641 C 171.85346 217.10258 169.70821 211.9211 166.02148 208.23438 C 162.33475 204.54764 157.15327 202.40046 151.93945 202.40039 z M 151.93945 290.05469 C 146.72562 290.05475 141.5422 292.20193 137.85547 295.88867 C 134.16874 299.5754 132.0235 304.75686 132.02344 309.9707 L 132.02344 325.38086 C 132.02744 325.7279 132.06354 326.07439 132.13477 326.41406 C 132.35487 331.60551 134.25271 336.39138 137.67773 339.81641 C 141.10243 343.24112 145.88921 345.13896 151.08008 345.35938 C 151.41974 345.43068 151.76624 345.46894 152.11328 345.47266 L 165.64453 345.47266 C 170.85836 345.4726 176.03983 343.32736 179.72656 339.64062 C 183.41329 335.95389 185.5605 330.77047 185.56055 325.55664 C 185.56012 317.14355 179.40705 309.34555 171.52148 306.67578 C 170.82544 302.6307 168.92606 298.79325 166.02148 295.88867 C 162.33475 292.20193 157.15327 290.05475 151.93945 290.05469 z " /></svg>
